<svg width="48" height="49" viewBox="0 0 48 49" fill="none" xmlns="http://www.w3.org/2000/svg">
<path d="M47.7896 21.1822C47.5743 19.6133 47.216 18.0671 46.7192 16.5628C45.9713 14.3618 44.9187 12.2754 43.5918 10.3637C42.5087 8.79091 41.2427 7.35102 39.8199 6.07401C38.5404 4.92222 37.1375 3.91379 35.6366 3.06687C34.2408 2.2606 32.7644 1.60127 31.2313 1.09955C29.1973 0.424481 27.0727 0.0580668 24.929 0.0126318C23.4828 -0.030906 22.0355 0.0381425 20.6001 0.219146C15.2914 0.997308 10.4023 3.53655 6.72499 7.42541C4.13814 10.1452 2.21147 13.4184 1.09266 16.9939C0.372265 19.1984 0.00370805 21.5016 0.000420926 23.8197V25.2182C-0.00423864 25.9441 0.02979 26.6698 0.102363 27.3921C0.296707 29.1176 0.673806 30.8178 1.22737 32.4644C2.44357 36.098 4.49133 39.4009 7.20922 42.1126C7.67888 42.5836 8.17767 43.0256 8.68738 43.4567C10.032 44.5872 11.4971 45.5676 13.0564 46.3805C14.7303 47.2585 16.5055 47.9301 18.3428 48.3805C19.7509 48.7481 21.198 48.9475 22.6535 48.9746C22.8287 48.9631 23.0046 48.9716 23.1778 49H24.7834C24.959 48.9716 25.1374 48.9631 25.3149 48.9746C26.0716 48.9631 26.8262 48.8941 27.5722 48.7681C30.365 48.3364 33.0563 47.406 35.5165 46.0218C38.2155 44.5136 40.5955 42.4996 42.525 40.0909C44.171 38.0465 45.4798 35.7547 46.4025 33.3013C47.3175 30.9294 47.8436 28.4265 47.9608 25.8885C48.0476 24.3178 47.9903 22.7425 47.7896 21.1822ZM35.1269 44.6958C33.9209 45.392 32.652 45.9742 31.3368 46.4349C31.1799 46.491 31.0155 46.5239 30.849 46.5327C30.6856 46.5564 30.519 46.5429 30.3616 46.4933C30.2043 46.4436 30.0602 46.3592 29.9404 46.2462C29.8206 46.1332 29.728 45.9947 29.6697 45.841C29.6114 45.6873 29.5889 45.5224 29.6038 45.3588C29.6038 44.3118 29.6038 43.2611 29.6038 42.2104C29.6038 40.9133 29.6766 39.6127 29.582 38.3156C29.4873 37.0186 29.1232 35.7795 28.1475 34.7904C28.1475 34.7904 28.1475 34.7614 28.1293 34.7324C28.639 34.6563 29.1487 34.5875 29.6548 34.4969C31.1748 34.2578 32.6381 33.7446 33.9728 32.9825C35.8457 31.8671 37.2168 30.0786 37.8029 27.9863C38.4073 26.037 38.5982 23.984 38.3636 21.9575C38.1719 20.212 37.4448 18.5675 36.2811 17.2475C36.2237 17.1917 36.1854 17.1193 36.1717 17.0406C36.158 16.9619 36.1695 16.8809 36.2046 16.8091C36.6027 15.5587 36.6877 14.2303 36.4522 12.9397C36.3442 12.3233 36.1835 11.7173 35.9716 11.1282C35.9548 11.0612 35.915 11.0022 35.8592 10.9612C35.8034 10.9202 35.735 10.8998 35.6658 10.9035C34.903 10.8743 34.1426 11.0052 33.4339 11.2876C32.1611 11.7665 30.9557 12.4071 29.8478 13.1933C29.7941 13.2368 29.7304 13.2665 29.6625 13.2797C29.5946 13.293 29.5244 13.2895 29.4582 13.2694C26.9271 12.5834 24.2886 12.3793 21.6814 12.668C20.6328 12.7731 19.5959 12.9719 18.5831 13.2622C18.4905 13.2926 18.3918 13.2997 18.2958 13.2826C18.1998 13.2655 18.1096 13.2249 18.0333 13.1643C16.9065 12.3603 15.6725 11.7165 14.367 11.2514C13.693 10.9946 12.9725 10.8811 12.2517 10.918C12.1243 10.918 12.0406 10.9543 11.9896 11.0919C11.2837 12.8612 11.1776 14.8114 11.6874 16.6461C11.7425 16.7811 11.7567 16.9292 11.7282 17.0721C11.6998 17.215 11.6299 17.3465 11.5272 17.4504C10.2857 18.9401 9.57734 20.7985 9.51385 22.7328C9.39345 24.6731 9.65693 26.618 10.2893 28.4573C11.2687 31.1782 13.202 32.9354 15.8998 33.8918C17.0611 34.2901 18.2623 34.5622 19.4824 34.7034L19.8064 34.7505C19.6863 34.8882 19.5734 35.0005 19.4715 35.1128C18.9312 35.8092 18.5858 36.6355 18.4702 37.5077C18.4633 37.6202 18.4208 37.7277 18.3489 37.8149C18.277 37.902 18.1793 37.9644 18.0697 37.9932C17.0367 38.4317 15.8953 38.5516 14.793 38.3373C14.1862 38.1889 13.6173 37.9156 13.1231 37.5349C12.629 37.1543 12.2205 36.6747 11.9241 36.1273C11.4915 35.3549 10.8891 34.6898 10.1619 34.1817C9.53796 33.7362 8.78085 33.514 8.01384 33.5513C7.93899 33.5578 7.86475 33.5699 7.79175 33.5875C7.58786 33.6346 7.35485 33.6636 7.28932 33.8991C7.22378 34.1346 7.39854 34.2868 7.54053 34.4389C7.7037 34.6174 7.89121 34.7723 8.09757 34.8991C9.07312 35.5402 9.8428 36.4469 10.3148 37.5113C10.5733 38.0149 10.719 38.5692 11.0066 39.0547C11.4266 39.7785 12.0153 40.3914 12.723 40.8415C13.4308 41.2917 14.2368 41.5661 15.0734 41.6416C16.0801 41.7558 17.099 41.7019 18.0879 41.4822C18.2882 41.4387 18.3246 41.4822 18.3246 41.6669C18.3246 42.8662 18.3246 44.0654 18.3501 45.2646C18.3501 46.2501 17.6219 46.7682 16.679 46.4457C14.3025 45.6311 12.0854 44.414 10.1255 42.848C7.011 40.368 4.57923 37.1427 3.05749 33.4734C1.53575 29.8042 0.973738 25.811 1.42398 21.8669C1.9983 16.345 4.56152 11.2166 8.64005 7.42903C11.6523 4.55529 15.4287 2.60025 19.5224 1.79518C23.7818 0.938297 28.1997 1.33249 32.2379 2.92975C36.2761 4.52701 39.7605 7.2584 42.2665 10.7912C44.36 13.6891 45.7552 17.0276 46.3442 20.5481C47.979 30.2905 43.5117 39.8373 35.1269 44.6958Z" fill="white"/>
</svg>
