<svg width="31" height="31" viewBox="0 0 31 31" fill="none" xmlns="http://www.w3.org/2000/svg">
<path d="M0 12.3902V11.0488V10.7073C0 10.2195 0 9.73171 0.217969 9.2439C0.684706 7.10736 1.75251 5.15137 3.29375 3.60976C4.93582 1.86931 7.07906 0.691997 9.42109 0.243902L10.9469 0H12.2789H12.8117C14.9602 0.247149 16.998 1.09167 18.6969 2.43902C20.0694 3.48304 21.1897 4.82611 21.974 6.36776C22.7583 7.90941 23.1862 9.60972 23.2258 11.3415C23.3339 14.0292 22.5217 16.6728 20.925 18.8293C20.8529 18.9301 20.7881 19.0361 20.7312 19.1463C21.089 19.1487 21.4417 19.2309 21.7642 19.3869C22.0866 19.543 22.3707 19.769 22.5961 20.0488L29.8617 27.3659C30.3599 27.766 30.7236 28.3111 30.9031 28.9268V29.3659C30.8116 29.6159 30.6895 29.8534 30.5398 30.0732C30.3739 30.3123 30.1563 30.5103 29.9033 30.6523C29.6503 30.7943 29.3686 30.8767 29.0795 30.8931C28.7903 30.9096 28.5012 30.8597 28.2339 30.7472C27.9667 30.6348 27.7283 30.4627 27.5367 30.2439L26.6406 29.2683L19.375 21.9512C19.2317 21.7926 19.1316 21.5993 19.0844 21.3902C19.0578 21.1226 19.0578 20.853 19.0844 20.5854L18.8422 20.7561C17.3046 22.048 15.4452 22.8915 13.4656 23.1951C11.6546 23.4818 9.80159 23.3228 8.06484 22.7317C6.01967 22.0808 4.19266 20.8738 2.78516 19.2439C1.532 17.7141 0.697177 15.8813 0.363281 13.9268C0.145312 13.4146 0 12.9024 0 12.3902ZM20.3437 11.7317C20.3485 9.9951 19.8419 8.29606 18.8878 6.84945C17.9338 5.40284 16.5752 4.27362 14.9839 3.6046C13.3926 2.93557 11.64 2.75679 9.94784 3.09085C8.25564 3.42492 6.69981 4.25683 5.4771 5.48139C4.25438 6.70594 3.41968 8.26814 3.07857 9.97044C2.73746 11.6727 2.90525 13.4387 3.56072 15.0449C4.21618 16.6512 5.3299 18.0256 6.76102 18.9945C8.19213 19.9633 9.87638 20.483 11.6008 20.4878C12.7475 20.4975 13.8848 20.278 14.9467 19.842C16.0086 19.406 16.9741 18.7621 17.7873 17.9478C18.6004 17.1334 19.2451 16.1647 19.6839 15.0977C20.1227 14.0307 20.347 12.8866 20.3437 11.7317Z" fill="#ABABAB"/>
</svg>
