<svg width="45" height="45" viewBox="0 0 45 45" fill="none" xmlns="http://www.w3.org/2000/svg">
<path d="M30.4619 43.3382C27.9307 43.2804 24.8284 42.3418 21.9954 40.7507C14.5803 36.5882 8.71962 30.8571 4.71191 23.3486C3.22699 20.6884 2.42047 17.7092 2.36244 14.67C2.34297 10.6071 4.07262 8.07429 7.91159 6.70179C12.9285 4.905 12.0848 5.58 13.6295 9.135C14.5886 11.3677 15.3139 13.692 15.794 16.0714C15.9919 17.0582 15.794 17.7782 14.934 18.3214C14.6971 18.4661 14.4862 18.6429 14.2623 18.81C11.6662 20.7032 11.598 20.9089 13.4121 23.4996C15.9978 27.2679 19.3339 30.4728 23.2155 32.9175C25.0718 34.0682 25.26 33.9879 26.6132 32.2746C28.7095 29.6132 28.7095 29.6068 32.0195 30.5518C34.3755 31.2268 36.6471 32.1236 38.9251 33.0139C40.1745 33.5025 40.5055 34.2546 40.1583 35.4761C39.8086 36.8527 39.3126 38.1887 38.6785 39.4618C37.2864 42.0429 34.7682 43.3446 30.4619 43.3382Z" fill="white"/>
<path d="M43.4586 23.2201C43.4586 24.2518 43.7279 25.6083 42.1605 25.6243C40.6808 25.6436 40.9241 24.3386 40.8884 23.3422C40.5282 13.2365 32.4804 5.40648 22.242 5.20398C22.057 5.20398 21.8688 5.20398 21.6871 5.20398C20.8401 5.15898 20.2041 4.78934 20.2333 3.88934C20.2625 2.98934 20.8758 2.62934 21.7423 2.62612C25.7422 2.57733 29.6763 3.63722 33.1002 5.68612C39.3438 9.41148 43.3677 16.2354 43.4586 23.2201Z" fill="white"/>
<path d="M37.6109 23.4129C37.6109 24.0043 37.692 24.6183 37.1955 25.0908C37.0326 25.2613 36.8224 25.3801 36.5913 25.4321C36.3602 25.4842 36.1188 25.4672 35.8975 25.3833C35.655 25.3039 35.4432 25.1523 35.2911 24.9492C35.1389 24.7461 35.0537 24.5014 35.0472 24.2486C35.0154 23.242 34.9211 22.2384 34.7649 21.2433C34.1924 18.4364 32.6824 15.9022 30.4783 14.049C28.2742 12.1959 25.5044 11.1318 22.6152 11.0283C22.3816 11.0283 22.1512 11.0283 21.9207 11.0283C21.0575 10.9929 20.4442 10.5783 20.4442 9.7104C20.4442 8.84254 21.0738 8.42469 21.9272 8.42469C24.3398 8.42295 26.7216 8.96137 28.8945 9.99969C33.9893 12.3879 37.5492 17.8554 37.6109 23.4129Z" fill="white"/>
<path d="M31.7599 23.3807C31.7956 24.271 31.6626 25.1099 30.5528 25.1903C29.4429 25.2707 29.232 24.496 29.1476 23.5832C28.7809 19.5107 26.3244 17.0967 22.2972 16.8428C21.3236 16.7785 20.613 16.4442 20.6746 15.406C20.746 14.4417 21.5184 14.2264 22.401 14.2457C24.8351 14.3231 27.1503 15.3064 28.8849 16.9995C30.6195 18.6926 31.6461 20.9711 31.7599 23.3807V23.3807Z" fill="white"/>
</svg>
